<svg xmlns="http://www.w3.org/2000/svg" width="220" height="220" viewBox="0 0 100 100" fill="currentColor">
  <rect width="100" height="100" fill="#ffffff"/>
  <path d="M0 0h30v10H10v20H0V0zm0 100h30v-10H10v-20H0v30zM100 0H70v10h20v20h10V0zm0 100H70v-10h20v-20h10v30z" />
  <path d="M10 10h10v10H10V10zm0 70h10v10H10V80zM80 10h10v10H80V10z" />
  <path d="M35 15h5v5h-5zm10 0h5v5h-5zm15 0h5v5h-5zm0 10h5v15h-5zm-15 10h5v5h-5zm10 5h5v5h-5zm-20 10h15v5H35zm30 5h5v5h-5zm10 0h15v5H75zm-30 10h5v15h-5zm10 5h15v5H55zm20 5h5v5h-5z"/>
  <rect x="40" y="40" width="20" height="20" fill="#ffffff"/>
  <circle cx="50" cy="50" r="8" fill="#94a3b8"/>
</svg>
